<svg width="21" height="20" viewBox="0 0 21 20" fill="none" xmlns="http://www.w3.org/2000/svg">
<path d="M5.99996 7.83335L8.5914 9.77693C9.00987 10.0908 9.59951 10.0291 9.94397 9.63544L15.1666 3.66669" stroke="white" stroke-width="2" stroke-linecap="round"/>
<path d="M16 9.5C16 11.0671 15.5091 12.5948 14.5964 13.8686C13.6836 15.1424 12.3947 16.0983 10.9108 16.602C9.42688 17.1057 7.82246 17.132 6.32287 16.6771C4.82327 16.2222 3.50383 15.309 2.54985 14.0657C1.59587 12.8225 1.05529 11.3116 1.00402 9.74539C0.952742 8.17916 1.39336 6.6362 2.26398 5.33322C3.1346 4.03025 4.39149 3.03271 5.85812 2.48071C7.32476 1.9287 8.92746 1.84997 10.4411 2.25556" stroke="white" stroke-width="2" stroke-linecap="round"/>
</svg>
