<svg width="127" height="33" viewBox="0 0 127 33" fill="none" xmlns="http://www.w3.org/2000/svg">
<path d="M0 2.8772H6.31382V25.2227H21.4008V30.1211H0V2.88015V2.8772Z" fill="#FFABAB"/>
<path d="M45.5261 8.04725H30.8615V13.8315H45.5261V18.5616H30.8615V25.5652H45.5261V30.4636H24.6918V3.22266H45.5261V8.04725Z" fill="#FFABAB"/>
<path d="M84.9186 30.3159H78.6473V3.07495H84.9186V30.3159Z" fill="#FFABAB"/>
<path d="M90.8232 3.22266H97.4416L109.434 22.2169V3.22266H115.315V30.4636H109.002L96.7015 11.1357V30.4636H90.8199V3.22266H90.8232Z" fill="#FFABAB"/>
<path d="M127 30.4665H120.729V3.22559H127V30.4665Z" fill="#FFABAB"/>
<path d="M72.6318 23.2327L59.12 23.2504C59.5031 22.6717 59.978 22.1668 60.538 21.7298C61.1012 21.2928 62.1426 20.5872 63.6687 19.6128L66.1084 18.0538C68.1617 16.7458 69.6386 15.5588 70.5359 14.4929C71.9048 12.8896 72.5893 11.0531 72.5893 8.98923C72.5893 6.29348 71.6199 4.1292 69.6845 2.49344C69.1933 2.08007 68.6595 1.71985 68.0864 1.41278C64.1959 -0.674732 58.2751 -0.479856 54.7481 2.20408C54.6237 2.29857 54.5058 2.39305 54.3879 2.49344C52.4492 4.1292 51.4831 6.29348 51.4831 8.98923C51.4831 11.0561 52.1676 12.8896 53.5364 14.4929C54.2078 15.2872 55.1968 16.1494 56.51 17.0794C57.0732 16.6661 57.6823 16.2497 58.3373 15.8275C59.4016 15.1395 60.3218 14.5284 61.0914 13.9969C60.872 13.8374 60.6231 13.6514 60.3644 13.4388C58.7434 12.1515 57.1977 10.2972 57.1977 8.26879C57.1977 5.47265 59.3165 3.82212 61.956 3.76602C61.9789 3.76602 61.9985 3.76602 62.0215 3.76602C62.0444 3.76602 62.064 3.76602 62.087 3.76602C64.7264 3.81917 66.8452 5.46969 66.8452 8.26583C66.8452 12.1072 62.0477 14.7409 59.0217 16.6867C55.7895 18.7654 53.7428 20.7348 52.8749 22.5949C51.9776 24.2514 51.4995 26.079 51.4438 28.0809H65.2995H72.6416V23.2298L72.6318 23.2327Z" fill="#D14D72"/>
<path d="M64.7101 27.3723H59.3525V33H64.7101V27.3723Z" fill="#D14D72"/>
<path d="M62.0314 11.1297C63.8057 11.1297 65.244 9.83291 65.244 8.2332C65.244 6.63349 63.8057 5.33667 62.0314 5.33667C60.2572 5.33667 58.8188 6.63349 58.8188 8.2332C58.8188 9.83291 60.2572 11.1297 62.0314 11.1297Z" fill="#D14D72"/>
</svg>
