<?xml version="1.0" encoding="UTF-8"?><svg id="Layer_1" xmlns="http://www.w3.org/2000/svg" viewBox="0 0 841.89 595.28"><defs><style>.cls-1{fill:#fec661;}.cls-2{fill:#d24f72;}</style></defs><g><path class="cls-1" d="M227.04,252.66h19.28v75.68h46.07v16.59h-65.35v-92.26Z"/><path class="cls-1" d="M366.06,269h-44.78v19.59h44.78v16.02h-44.78v23.72h44.78v16.59h-63.62v-92.26h63.62v16.34Z"/><path class="cls-1" d="M486.34,344.42h-19.15v-92.26h19.15v92.26Z"/><path class="cls-1" d="M504.37,252.66h20.21l36.62,64.33v-64.33h17.96v92.26h-19.28l-37.56-65.46v65.46h-17.96v-92.26Z"/><path class="cls-1" d="M614.85,344.93h-19.15v-92.26h19.15v92.26Z"/></g><g><path class="cls-2" d="M448.83,320.44l-41.26,.06c1.17-1.96,2.62-3.67,4.33-5.15,1.72-1.48,4.9-3.87,9.56-7.17l7.45-5.28c6.27-4.43,10.78-8.45,13.52-12.06,4.18-5.43,6.27-11.65,6.27-18.64,0-9.13-2.96-16.46-8.87-22-1.5-1.4-3.13-2.62-4.88-3.66-11.88-7.07-29.96-6.41-40.73,2.68-.38,.32-.74,.64-1.1,.98-5.92,5.54-8.87,12.87-8.87,22,0,7,2.09,13.21,6.27,18.64,2.05,2.69,5.07,5.61,9.08,8.76,1.72-1.4,3.58-2.81,5.58-4.24,3.25-2.33,6.06-4.4,8.41-6.2-.67-.54-1.43-1.17-2.22-1.89-4.95-4.36-9.67-10.64-9.67-17.51,0-9.47,6.47-15.06,14.53-15.25,.07,0,.13,0,.2,0,.07,0,.13,0,.2,0,8.06,.18,14.53,5.77,14.53,15.24,0,13.01-14.65,21.93-23.89,28.52-9.87,7.04-16.12,13.71-18.77,20.01-2.74,5.61-4.2,11.8-4.37,18.58h42.31s22.42,0,22.42,0v-16.43Z"/><rect class="cls-2" x="408.28" y="334.45" width="16.36" height="19.06"/><circle class="cls-2" cx="416.46" cy="269.63" r="9.81"/></g></svg>