<svg width="430" height="134" viewBox="0 0 430 134" fill="none" xmlns="http://www.w3.org/2000/svg">
<path d="M53.1729 118.091C53.0877 117.371 52.7421 116.812 52.136 116.415C51.5299 116.017 50.7866 115.818 49.9059 115.818C49.262 115.818 48.6985 115.922 48.2156 116.131C47.7373 116.339 47.3633 116.625 47.0934 116.99C46.8282 117.355 46.6957 117.769 46.6957 118.233C46.6957 118.621 46.788 118.955 46.9727 119.234C47.1621 119.509 47.4035 119.739 47.6971 119.923C47.9906 120.103 48.2984 120.252 48.6204 120.371C48.9424 120.484 49.2383 120.577 49.5082 120.648L50.9854 121.045C51.3642 121.145 51.7856 121.282 52.2496 121.457C52.7184 121.633 53.1658 121.872 53.592 122.175C54.0228 122.473 54.378 122.857 54.6573 123.325C54.9367 123.794 55.0763 124.369 55.0763 125.051C55.0763 125.837 54.8704 126.547 54.4585 127.182C54.0513 127.816 53.4547 128.321 52.6687 128.695C51.8874 129.069 50.9381 129.256 49.8207 129.256C48.779 129.256 47.877 129.088 47.1147 128.751C46.3571 128.415 45.7605 127.946 45.3249 127.345C44.8941 126.744 44.6502 126.045 44.5934 125.25H46.4116C46.4589 125.799 46.6436 126.254 46.9656 126.614C47.2923 126.969 47.7042 127.234 48.2013 127.409C48.7032 127.58 49.243 127.665 49.8207 127.665C50.493 127.665 51.0967 127.556 51.6317 127.338C52.1668 127.116 52.5906 126.808 52.9031 126.415C53.2156 126.017 53.3718 125.553 53.3718 125.023C53.3718 124.54 53.2369 124.147 52.967 123.844C52.6971 123.541 52.342 123.295 51.9016 123.105C51.4613 122.916 50.9854 122.75 50.4741 122.608L48.6843 122.097C47.5479 121.77 46.6483 121.304 45.9854 120.697C45.3226 120.091 44.9911 119.298 44.9911 118.318C44.9911 117.504 45.2113 116.794 45.6516 116.188C46.0967 115.577 46.6933 115.103 47.4414 114.767C48.1942 114.426 49.0347 114.256 49.9627 114.256C50.9002 114.256 51.7335 114.424 52.4627 114.76C53.1919 115.091 53.7695 115.546 54.1957 116.124C54.6265 116.701 54.8538 117.357 54.8775 118.091H53.1729ZM59.4212 122.438V129H57.745V114.455H59.4212V119.795H59.5632C59.8189 119.232 60.2024 118.785 60.7138 118.453C61.2299 118.117 61.9164 117.949 62.7734 117.949C63.5168 117.949 64.1679 118.098 64.7266 118.396C65.2853 118.69 65.7185 119.142 66.0263 119.753C66.3388 120.359 66.495 121.131 66.495 122.068V129H64.8189V122.182C64.8189 121.315 64.594 120.645 64.1442 120.172C63.6991 119.694 63.0812 119.455 62.2905 119.455C61.7412 119.455 61.2488 119.571 60.8132 119.803C60.3823 120.035 60.0414 120.373 59.7905 120.818C59.5443 121.263 59.4212 121.803 59.4212 122.438ZM72.7717 129.256C72.0804 129.256 71.453 129.125 70.8896 128.865C70.3261 128.6 69.8787 128.219 69.5472 127.722C69.2158 127.22 69.0501 126.614 69.0501 125.903C69.0501 125.278 69.1732 124.772 69.4194 124.384C69.6656 123.991 69.9947 123.683 70.4066 123.46C70.8185 123.238 71.2731 123.072 71.7702 122.963C72.2721 122.849 72.7764 122.759 73.283 122.693C73.9459 122.608 74.4833 122.544 74.8952 122.501C75.3119 122.454 75.6149 122.376 75.8043 122.267C75.9985 122.158 76.0955 121.969 76.0955 121.699V121.642C76.0955 120.941 75.9038 120.397 75.5202 120.009C75.1415 119.62 74.5662 119.426 73.7944 119.426C72.9942 119.426 72.3668 119.601 71.9123 119.952C71.4577 120.302 71.1381 120.676 70.9535 121.074L69.3626 120.506C69.6467 119.843 70.0254 119.327 70.4989 118.957C70.9772 118.583 71.498 118.323 72.0614 118.176C72.6296 118.025 73.1883 117.949 73.7376 117.949C74.0879 117.949 74.4904 117.991 74.945 118.077C75.4042 118.157 75.8469 118.325 76.2731 118.581C76.704 118.837 77.0614 119.223 77.3455 119.739C77.6296 120.255 77.7717 120.946 77.7717 121.812V129H76.0955V127.523H76.0103C75.8967 127.759 75.7073 128.013 75.4421 128.283C75.177 128.553 74.8242 128.782 74.3839 128.972C73.9435 129.161 73.4061 129.256 72.7717 129.256ZM73.0273 127.75C73.6902 127.75 74.2489 127.62 74.7035 127.359C75.1628 127.099 75.5084 126.763 75.7404 126.351C75.9772 125.939 76.0955 125.506 76.0955 125.051V123.517C76.0245 123.602 75.8683 123.68 75.6268 123.751C75.39 123.818 75.1154 123.877 74.8029 123.929C74.4951 123.976 74.1945 124.019 73.9009 124.057C73.6121 124.09 73.3777 124.118 73.1978 124.142C72.7622 124.199 72.355 124.291 71.9762 124.419C71.6022 124.542 71.2991 124.729 71.0671 124.98C70.8398 125.226 70.7262 125.562 70.7262 125.989C70.7262 126.571 70.9416 127.011 71.3725 127.31C71.8081 127.603 72.3597 127.75 73.0273 127.75ZM80.831 129V118.091H82.4503V119.739H82.5639C82.7628 119.199 83.1226 118.761 83.6435 118.425C84.1643 118.089 84.7514 117.92 85.4048 117.92C85.5279 117.92 85.6818 117.923 85.8665 117.928C86.0511 117.932 86.1908 117.939 86.2855 117.949V119.653C86.2287 119.639 86.0985 119.618 85.8949 119.589C85.696 119.556 85.4853 119.54 85.2628 119.54C84.7325 119.54 84.259 119.651 83.8423 119.874C83.4304 120.091 83.1037 120.394 82.8622 120.783C82.6255 121.166 82.5071 121.604 82.5071 122.097V129H80.831ZM92.5142 129.227C91.4631 129.227 90.5563 128.995 89.794 128.531C89.0365 128.062 88.4517 127.409 88.0398 126.571C87.6326 125.728 87.429 124.748 87.429 123.631C87.429 122.513 87.6326 121.528 88.0398 120.676C88.4517 119.819 89.0246 119.152 89.7585 118.673C90.4972 118.19 91.3589 117.949 92.3438 117.949C92.9119 117.949 93.473 118.044 94.027 118.233C94.581 118.422 95.0852 118.73 95.5398 119.156C95.9943 119.578 96.3565 120.136 96.6264 120.832C96.8963 121.528 97.0312 122.385 97.0312 123.403V124.114H88.6222V122.665H95.3267C95.3267 122.049 95.2036 121.5 94.9574 121.017C94.7159 120.534 94.3703 120.153 93.9205 119.874C93.4754 119.594 92.9498 119.455 92.3438 119.455C91.6761 119.455 91.0985 119.62 90.6108 119.952C90.1278 120.278 89.7562 120.705 89.4957 121.23C89.2353 121.756 89.1051 122.319 89.1051 122.92V123.886C89.1051 124.71 89.2472 125.409 89.5312 125.982C89.8201 126.55 90.2202 126.983 90.7315 127.281C91.2429 127.575 91.8371 127.722 92.5142 127.722C92.9545 127.722 93.3523 127.66 93.7074 127.537C94.0672 127.409 94.3774 127.22 94.6378 126.969C94.8982 126.713 95.0994 126.396 95.2415 126.017L96.8608 126.472C96.6903 127.021 96.4039 127.504 96.0014 127.92C95.599 128.332 95.1018 128.654 94.5099 128.886C93.9181 129.114 93.2528 129.227 92.5142 129.227ZM113.388 118.091C113.303 117.371 112.957 116.812 112.351 116.415C111.745 116.017 111.001 115.818 110.121 115.818C109.477 115.818 108.913 115.922 108.43 116.131C107.952 116.339 107.578 116.625 107.308 116.99C107.043 117.355 106.911 117.769 106.911 118.233C106.911 118.621 107.003 118.955 107.188 119.234C107.377 119.509 107.618 119.739 107.912 119.923C108.205 120.103 108.513 120.252 108.835 120.371C109.157 120.484 109.453 120.577 109.723 120.648L111.2 121.045C111.579 121.145 112 121.282 112.464 121.457C112.933 121.633 113.381 121.872 113.807 122.175C114.238 122.473 114.593 122.857 114.872 123.325C115.152 123.794 115.291 124.369 115.291 125.051C115.291 125.837 115.085 126.547 114.673 127.182C114.266 127.816 113.67 128.321 112.884 128.695C112.102 129.069 111.153 129.256 110.036 129.256C108.994 129.256 108.092 129.088 107.33 128.751C106.572 128.415 105.975 127.946 105.54 127.345C105.109 126.744 104.865 126.045 104.808 125.25H106.626C106.674 125.799 106.858 126.254 107.18 126.614C107.507 126.969 107.919 127.234 108.416 127.409C108.918 127.58 109.458 127.665 110.036 127.665C110.708 127.665 111.312 127.556 111.847 127.338C112.382 127.116 112.805 126.808 113.118 126.415C113.43 126.017 113.587 125.553 113.587 125.023C113.587 124.54 113.452 124.147 113.182 123.844C112.912 123.541 112.557 123.295 112.116 123.105C111.676 122.916 111.2 122.75 110.689 122.608L108.899 122.097C107.763 121.77 106.863 121.304 106.2 120.697C105.537 120.091 105.206 119.298 105.206 118.318C105.206 117.504 105.426 116.794 105.866 116.188C106.312 115.577 106.908 115.103 107.656 114.767C108.409 114.426 109.25 114.256 110.178 114.256C111.115 114.256 111.948 114.424 112.678 114.76C113.407 115.091 113.984 115.546 114.411 116.124C114.841 116.701 115.069 117.357 115.092 118.091H113.388ZM117.96 129V118.091H119.579V119.795H119.721C119.949 119.213 120.315 118.761 120.822 118.439C121.329 118.112 121.937 117.949 122.647 117.949C123.367 117.949 123.966 118.112 124.444 118.439C124.927 118.761 125.304 119.213 125.574 119.795H125.687C125.967 119.232 126.386 118.785 126.944 118.453C127.503 118.117 128.173 117.949 128.954 117.949C129.93 117.949 130.727 118.254 131.348 118.865C131.968 119.471 132.278 120.416 132.278 121.699V129H130.602V121.699C130.602 120.894 130.382 120.319 129.941 119.973C129.501 119.627 128.983 119.455 128.386 119.455C127.619 119.455 127.025 119.687 126.603 120.151C126.182 120.61 125.971 121.192 125.971 121.898V129H124.267V121.528C124.267 120.908 124.065 120.409 123.663 120.03C123.261 119.646 122.742 119.455 122.108 119.455C121.672 119.455 121.265 119.571 120.886 119.803C120.512 120.035 120.209 120.357 119.977 120.768C119.75 121.176 119.636 121.647 119.636 122.182V129H117.96ZM135.343 129V118.091H137.019V129H135.343ZM136.195 116.273C135.868 116.273 135.587 116.161 135.35 115.939C135.118 115.716 135.002 115.449 135.002 115.136C135.002 114.824 135.118 114.556 135.35 114.334C135.587 114.111 135.868 114 136.195 114C136.522 114 136.801 114.111 137.033 114.334C137.27 114.556 137.388 114.824 137.388 115.136C137.388 115.449 137.27 115.716 137.033 115.939C136.801 116.161 136.522 116.273 136.195 116.273ZM141.765 114.455V129H140.089V114.455H141.765ZM149.409 129.227C148.358 129.227 147.451 128.995 146.689 128.531C145.931 128.062 145.346 127.409 144.934 126.571C144.527 125.728 144.324 124.748 144.324 123.631C144.324 122.513 144.527 121.528 144.934 120.676C145.346 119.819 145.919 119.152 146.653 118.673C147.392 118.19 148.253 117.949 149.238 117.949C149.806 117.949 150.368 118.044 150.922 118.233C151.475 118.422 151.98 118.73 152.434 119.156C152.889 119.578 153.251 120.136 153.521 120.832C153.791 121.528 153.926 122.385 153.926 123.403V124.114H145.517V122.665H152.221C152.221 122.049 152.098 121.5 151.852 121.017C151.61 120.534 151.265 120.153 150.815 119.874C150.37 119.594 149.844 119.455 149.238 119.455C148.571 119.455 147.993 119.62 147.505 119.952C147.022 120.278 146.651 120.705 146.39 121.23C146.13 121.756 146 122.319 146 122.92V123.886C146 124.71 146.142 125.409 146.426 125.982C146.715 126.55 147.115 126.983 147.626 127.281C148.137 127.575 148.732 127.722 149.409 127.722C149.849 127.722 150.247 127.66 150.602 127.537C150.962 127.409 151.272 127.22 151.532 126.969C151.793 126.713 151.994 126.396 152.136 126.017L153.755 126.472C153.585 127.021 153.298 127.504 152.896 127.92C152.493 128.332 151.996 128.654 151.404 128.886C150.813 129.114 150.147 129.227 149.409 129.227ZM164.203 120.534L162.697 120.96C162.602 120.709 162.463 120.465 162.278 120.229C162.098 119.987 161.852 119.788 161.539 119.632C161.227 119.476 160.827 119.398 160.339 119.398C159.672 119.398 159.115 119.552 158.67 119.859C158.23 120.162 158.01 120.548 158.01 121.017C158.01 121.434 158.161 121.763 158.464 122.004C158.767 122.246 159.241 122.447 159.885 122.608L161.504 123.006C162.479 123.242 163.206 123.605 163.684 124.092C164.163 124.575 164.402 125.198 164.402 125.96C164.402 126.585 164.222 127.144 163.862 127.636C163.507 128.129 163.01 128.517 162.37 128.801C161.731 129.085 160.988 129.227 160.14 129.227C159.028 129.227 158.107 128.986 157.377 128.503C156.648 128.02 156.187 127.314 155.993 126.386L157.583 125.989C157.735 126.576 158.021 127.016 158.443 127.31C158.869 127.603 159.425 127.75 160.112 127.75C160.893 127.75 161.513 127.584 161.973 127.253C162.437 126.917 162.669 126.514 162.669 126.045C162.669 125.667 162.536 125.349 162.271 125.094C162.006 124.833 161.599 124.639 161.049 124.511L159.231 124.085C158.232 123.848 157.498 123.482 157.029 122.984C156.565 122.482 156.333 121.855 156.333 121.102C156.333 120.487 156.506 119.942 156.852 119.469C157.202 118.995 157.678 118.624 158.279 118.354C158.886 118.084 159.572 117.949 160.339 117.949C161.419 117.949 162.266 118.186 162.882 118.659C163.502 119.133 163.942 119.758 164.203 120.534ZM169.425 127.011L169.311 127.778C169.231 128.318 169.107 128.896 168.942 129.511C168.781 130.127 168.613 130.707 168.438 131.251C168.262 131.796 168.118 132.229 168.004 132.551H166.726C166.787 132.248 166.868 131.848 166.967 131.351C167.067 130.854 167.166 130.297 167.266 129.682C167.37 129.071 167.455 128.446 167.521 127.807L167.607 127.011H169.425ZM181.025 129L177.047 114.455H178.837L181.877 126.301H182.019L185.115 114.455H187.104L190.201 126.301H190.343L193.382 114.455H195.172L191.195 129H189.377L186.167 117.409H186.053L182.843 129H181.025ZM200.556 129.227C199.571 129.227 198.707 128.993 197.963 128.524C197.225 128.055 196.647 127.4 196.23 126.557C195.819 125.714 195.613 124.729 195.613 123.602C195.613 122.466 195.819 121.474 196.23 120.626C196.647 119.779 197.225 119.121 197.963 118.652C198.707 118.183 199.571 117.949 200.556 117.949C201.541 117.949 202.402 118.183 203.141 118.652C203.884 119.121 204.462 119.779 204.874 120.626C205.291 121.474 205.499 122.466 205.499 123.602C205.499 124.729 205.291 125.714 204.874 126.557C204.462 127.4 203.884 128.055 203.141 128.524C202.402 128.993 201.541 129.227 200.556 129.227ZM200.556 127.722C201.304 127.722 201.919 127.53 202.402 127.146C202.885 126.763 203.243 126.259 203.475 125.634C203.707 125.009 203.823 124.331 203.823 123.602C203.823 122.873 203.707 122.194 203.475 121.564C203.243 120.934 202.885 120.425 202.402 120.037C201.919 119.649 201.304 119.455 200.556 119.455C199.808 119.455 199.192 119.649 198.709 120.037C198.226 120.425 197.869 120.934 197.637 121.564C197.405 122.194 197.289 122.873 197.289 123.602C197.289 124.331 197.405 125.009 197.637 125.634C197.869 126.259 198.226 126.763 198.709 127.146C199.192 127.53 199.808 127.722 200.556 127.722ZM208.058 129V118.091H209.677V119.795H209.819C210.046 119.213 210.413 118.761 210.92 118.439C211.426 118.112 212.035 117.949 212.745 117.949C213.465 117.949 214.064 118.112 214.542 118.439C215.025 118.761 215.401 119.213 215.671 119.795H215.785C216.064 119.232 216.483 118.785 217.042 118.453C217.601 118.117 218.271 117.949 219.052 117.949C220.027 117.949 220.825 118.254 221.445 118.865C222.066 119.471 222.376 120.416 222.376 121.699V129H220.7V121.699C220.7 120.894 220.479 120.319 220.039 119.973C219.599 119.627 219.08 119.455 218.484 119.455C217.717 119.455 217.122 119.687 216.701 120.151C216.28 120.61 216.069 121.192 216.069 121.898V129H214.364V121.528C214.364 120.908 214.163 120.409 213.761 120.03C213.358 119.646 212.84 119.455 212.205 119.455C211.77 119.455 211.362 119.571 210.984 119.803C210.61 120.035 210.307 120.357 210.075 120.768C209.847 121.176 209.734 121.647 209.734 122.182V129H208.058ZM230.014 129.227C228.963 129.227 228.056 128.995 227.294 128.531C226.536 128.062 225.952 127.409 225.54 126.571C225.133 125.728 224.929 124.748 224.929 123.631C224.929 122.513 225.133 121.528 225.54 120.676C225.952 119.819 226.525 119.152 227.259 118.673C227.997 118.19 228.859 117.949 229.844 117.949C230.412 117.949 230.973 118.044 231.527 118.233C232.081 118.422 232.585 118.73 233.04 119.156C233.494 119.578 233.857 120.136 234.126 120.832C234.396 121.528 234.531 122.385 234.531 123.403V124.114H226.122V122.665H232.827C232.827 122.049 232.704 121.5 232.457 121.017C232.216 120.534 231.87 120.153 231.42 119.874C230.975 119.594 230.45 119.455 229.844 119.455C229.176 119.455 228.598 119.62 228.111 119.952C227.628 120.278 227.256 120.705 226.996 121.23C226.735 121.756 226.605 122.319 226.605 122.92V123.886C226.605 124.71 226.747 125.409 227.031 125.982C227.32 126.55 227.72 126.983 228.232 127.281C228.743 127.575 229.337 127.722 230.014 127.722C230.455 127.722 230.852 127.66 231.207 127.537C231.567 127.409 231.877 127.22 232.138 126.969C232.398 126.713 232.599 126.396 232.741 126.017L234.361 126.472C234.19 127.021 233.904 127.504 233.501 127.92C233.099 128.332 232.602 128.654 232.01 128.886C231.418 129.114 230.753 129.227 230.014 129.227ZM238.757 122.438V129H237.081V118.091H238.7V119.795H238.842C239.098 119.241 239.486 118.796 240.007 118.46C240.528 118.119 241.2 117.949 242.024 117.949C242.763 117.949 243.409 118.1 243.963 118.403C244.517 118.702 244.948 119.156 245.256 119.767C245.563 120.373 245.717 121.14 245.717 122.068V129H244.041V122.182C244.041 121.325 243.819 120.657 243.374 120.179C242.929 119.696 242.318 119.455 241.541 119.455C241.006 119.455 240.528 119.571 240.107 119.803C239.69 120.035 239.361 120.373 239.119 120.818C238.878 121.263 238.757 121.803 238.757 122.438ZM250.229 114.455V119.455H248.667V114.455H250.229ZM260.941 120.534L259.435 120.96C259.341 120.709 259.201 120.465 259.016 120.229C258.836 119.987 258.59 119.788 258.278 119.632C257.965 119.476 257.565 119.398 257.077 119.398C256.41 119.398 255.853 119.552 255.408 119.859C254.968 120.162 254.748 120.548 254.748 121.017C254.748 121.434 254.899 121.763 255.202 122.004C255.505 122.246 255.979 122.447 256.623 122.608L258.242 123.006C259.218 123.242 259.944 123.605 260.423 124.092C260.901 124.575 261.14 125.198 261.14 125.96C261.14 126.585 260.96 127.144 260.6 127.636C260.245 128.129 259.748 128.517 259.109 128.801C258.469 129.085 257.726 129.227 256.879 129.227C255.766 129.227 254.845 128.986 254.116 128.503C253.387 128.02 252.925 127.314 252.731 126.386L254.322 125.989C254.473 126.576 254.76 127.016 255.181 127.31C255.607 127.603 256.164 127.75 256.85 127.75C257.631 127.75 258.252 127.584 258.711 127.253C259.175 126.917 259.407 126.514 259.407 126.045C259.407 125.667 259.274 125.349 259.009 125.094C258.744 124.833 258.337 124.639 257.788 124.511L255.969 124.085C254.97 123.848 254.237 123.482 253.768 122.984C253.304 122.482 253.072 121.855 253.072 121.102C253.072 120.487 253.245 119.942 253.59 119.469C253.941 118.995 254.416 118.624 255.018 118.354C255.624 118.084 256.31 117.949 257.077 117.949C258.157 117.949 259.004 118.186 259.62 118.659C260.24 119.133 260.681 119.758 260.941 120.534ZM281.22 119H279.458C279.354 118.493 279.172 118.048 278.912 117.665C278.656 117.281 278.343 116.959 277.974 116.699C277.609 116.434 277.205 116.235 276.76 116.102C276.315 115.97 275.85 115.903 275.368 115.903C274.487 115.903 273.689 116.126 272.974 116.571C272.264 117.016 271.698 117.672 271.277 118.538C270.86 119.405 270.652 120.468 270.652 121.727C270.652 122.987 270.86 124.05 271.277 124.916C271.698 125.783 272.264 126.438 272.974 126.884C273.689 127.329 274.487 127.551 275.368 127.551C275.85 127.551 276.315 127.485 276.76 127.352C277.205 127.22 277.609 127.023 277.974 126.763C278.343 126.498 278.656 126.173 278.912 125.79C279.172 125.402 279.354 124.956 279.458 124.455H281.22C281.087 125.198 280.846 125.863 280.495 126.45C280.145 127.037 279.709 127.537 279.189 127.949C278.668 128.356 278.083 128.666 277.434 128.879C276.79 129.092 276.101 129.199 275.368 129.199C274.127 129.199 273.024 128.896 272.058 128.29C271.092 127.684 270.332 126.822 269.778 125.705C269.224 124.587 268.947 123.261 268.947 121.727C268.947 120.193 269.224 118.867 269.778 117.75C270.332 116.633 271.092 115.771 272.058 115.165C273.024 114.559 274.127 114.256 275.368 114.256C276.101 114.256 276.79 114.362 277.434 114.575C278.083 114.788 278.668 115.101 279.189 115.513C279.709 115.92 280.145 116.417 280.495 117.004C280.846 117.587 281.087 118.252 281.22 119ZM288.271 129.227C287.286 129.227 286.422 128.993 285.678 128.524C284.94 128.055 284.362 127.4 283.945 126.557C283.533 125.714 283.327 124.729 283.327 123.602C283.327 122.466 283.533 121.474 283.945 120.626C284.362 119.779 284.94 119.121 285.678 118.652C286.422 118.183 287.286 117.949 288.271 117.949C289.255 117.949 290.117 118.183 290.856 118.652C291.599 119.121 292.177 119.779 292.589 120.626C293.005 121.474 293.214 122.466 293.214 123.602C293.214 124.729 293.005 125.714 292.589 126.557C292.177 127.4 291.599 128.055 290.856 128.524C290.117 128.993 289.255 129.227 288.271 129.227ZM288.271 127.722C289.019 127.722 289.634 127.53 290.117 127.146C290.6 126.763 290.958 126.259 291.19 125.634C291.422 125.009 291.538 124.331 291.538 123.602C291.538 122.873 291.422 122.194 291.19 121.564C290.958 120.934 290.6 120.425 290.117 120.037C289.634 119.649 289.019 119.455 288.271 119.455C287.522 119.455 286.907 119.649 286.424 120.037C285.941 120.425 285.584 120.934 285.352 121.564C285.12 122.194 285.004 122.873 285.004 123.602C285.004 124.331 285.12 125.009 285.352 125.634C285.584 126.259 285.941 126.763 286.424 127.146C286.907 127.53 287.522 127.722 288.271 127.722ZM297.449 122.438V129H295.772V118.091H297.392V119.795H297.534C297.789 119.241 298.178 118.796 298.699 118.46C299.219 118.119 299.892 117.949 300.716 117.949C301.454 117.949 302.1 118.1 302.654 118.403C303.208 118.702 303.639 119.156 303.947 119.767C304.255 120.373 304.409 121.14 304.409 122.068V129H302.733V122.182C302.733 121.325 302.51 120.657 302.065 120.179C301.62 119.696 301.009 119.455 300.233 119.455C299.698 119.455 299.219 119.571 298.798 119.803C298.381 120.035 298.052 120.373 297.811 120.818C297.569 121.263 297.449 121.803 297.449 122.438ZM309.148 122.438V129H307.472V118.091H309.091V119.795H309.233C309.489 119.241 309.877 118.796 310.398 118.46C310.919 118.119 311.591 117.949 312.415 117.949C313.153 117.949 313.8 118.1 314.354 118.403C314.908 118.702 315.339 119.156 315.646 119.767C315.954 120.373 316.108 121.14 316.108 122.068V129H314.432V122.182C314.432 121.325 314.209 120.657 313.764 120.179C313.319 119.696 312.708 119.455 311.932 119.455C311.397 119.455 310.919 119.571 310.497 119.803C310.08 120.035 309.751 120.373 309.51 120.818C309.268 121.263 309.148 121.803 309.148 122.438ZM323.745 129.227C322.694 129.227 321.787 128.995 321.025 128.531C320.267 128.062 319.682 127.409 319.27 126.571C318.863 125.728 318.659 124.748 318.659 123.631C318.659 122.513 318.863 121.528 319.27 120.676C319.682 119.819 320.255 119.152 320.989 118.673C321.728 118.19 322.589 117.949 323.574 117.949C324.142 117.949 324.703 118.044 325.257 118.233C325.811 118.422 326.316 118.73 326.77 119.156C327.225 119.578 327.587 120.136 327.857 120.832C328.127 121.528 328.262 122.385 328.262 123.403V124.114H319.853V122.665H326.557C326.557 122.049 326.434 121.5 326.188 121.017C325.946 120.534 325.601 120.153 325.151 119.874C324.706 119.594 324.18 119.455 323.574 119.455C322.907 119.455 322.329 119.62 321.841 119.952C321.358 120.278 320.987 120.705 320.726 121.23C320.466 121.756 320.336 122.319 320.336 122.92V123.886C320.336 124.71 320.478 125.409 320.762 125.982C321.051 126.55 321.451 126.983 321.962 127.281C322.473 127.575 323.068 127.722 323.745 127.722C324.185 127.722 324.583 127.66 324.938 127.537C325.298 127.409 325.608 127.22 325.868 126.969C326.129 126.713 326.33 126.396 326.472 126.017L328.091 126.472C327.921 127.021 327.634 127.504 327.232 127.92C326.829 128.332 326.332 128.654 325.74 128.886C325.149 129.114 324.483 129.227 323.745 129.227ZM335.243 129.227C334.221 129.227 333.34 128.986 332.601 128.503C331.863 128.02 331.294 127.355 330.897 126.507C330.499 125.66 330.3 124.691 330.3 123.602C330.3 122.494 330.504 121.517 330.911 120.669C331.323 119.817 331.896 119.152 332.63 118.673C333.368 118.19 334.23 117.949 335.215 117.949C335.982 117.949 336.673 118.091 337.289 118.375C337.904 118.659 338.408 119.057 338.801 119.568C339.194 120.08 339.438 120.676 339.533 121.358H337.857C337.729 120.861 337.445 120.42 337.005 120.037C336.569 119.649 335.982 119.455 335.243 119.455C334.59 119.455 334.017 119.625 333.525 119.966C333.037 120.302 332.656 120.778 332.381 121.393C332.111 122.004 331.976 122.722 331.976 123.545C331.976 124.388 332.109 125.122 332.374 125.747C332.644 126.372 333.023 126.857 333.51 127.203C334.003 127.549 334.58 127.722 335.243 127.722C335.679 127.722 336.074 127.646 336.429 127.494C336.784 127.343 337.085 127.125 337.331 126.841C337.578 126.557 337.753 126.216 337.857 125.818H339.533C339.438 126.462 339.204 127.042 338.83 127.558C338.461 128.07 337.971 128.477 337.36 128.78C336.754 129.078 336.048 129.227 335.243 129.227ZM346.728 118.091V119.511H341.074V118.091H346.728ZM342.722 115.477H344.398V125.875C344.398 126.348 344.467 126.704 344.604 126.94C344.746 127.172 344.926 127.329 345.144 127.409C345.366 127.485 345.601 127.523 345.847 127.523C346.032 127.523 346.183 127.513 346.301 127.494C346.42 127.471 346.515 127.452 346.586 127.438L346.926 128.943C346.813 128.986 346.654 129.028 346.451 129.071C346.247 129.118 345.989 129.142 345.676 129.142C345.203 129.142 344.739 129.04 344.284 128.837C343.835 128.633 343.461 128.323 343.162 127.906C342.869 127.49 342.722 126.964 342.722 126.33V115.477ZM349.249 129V118.091H350.925V129H349.249ZM350.101 116.273C349.775 116.273 349.493 116.161 349.256 115.939C349.024 115.716 348.908 115.449 348.908 115.136C348.908 114.824 349.024 114.556 349.256 114.334C349.493 114.111 349.775 114 350.101 114C350.428 114 350.707 114.111 350.939 114.334C351.176 114.556 351.294 114.824 351.294 115.136C351.294 115.449 351.176 115.716 350.939 115.939C350.707 116.161 350.428 116.273 350.101 116.273ZM358.427 129.227C357.442 129.227 356.578 128.993 355.835 128.524C355.096 128.055 354.518 127.4 354.102 126.557C353.69 125.714 353.484 124.729 353.484 123.602C353.484 122.466 353.69 121.474 354.102 120.626C354.518 119.779 355.096 119.121 355.835 118.652C356.578 118.183 357.442 117.949 358.427 117.949C359.412 117.949 360.273 118.183 361.012 118.652C361.755 119.121 362.333 119.779 362.745 120.626C363.162 121.474 363.37 122.466 363.37 123.602C363.37 124.729 363.162 125.714 362.745 126.557C362.333 127.4 361.755 128.055 361.012 128.524C360.273 128.993 359.412 129.227 358.427 129.227ZM358.427 127.722C359.175 127.722 359.79 127.53 360.273 127.146C360.756 126.763 361.114 126.259 361.346 125.634C361.578 125.009 361.694 124.331 361.694 123.602C361.694 122.873 361.578 122.194 361.346 121.564C361.114 120.934 360.756 120.425 360.273 120.037C359.79 119.649 359.175 119.455 358.427 119.455C357.679 119.455 357.063 119.649 356.58 120.037C356.097 120.425 355.74 120.934 355.508 121.564C355.276 122.194 355.16 122.873 355.16 123.602C355.16 124.331 355.276 125.009 355.508 125.634C355.74 126.259 356.097 126.763 356.58 127.146C357.063 127.53 357.679 127.722 358.427 127.722ZM367.605 122.438V129H365.929V118.091H367.548V119.795H367.69C367.946 119.241 368.334 118.796 368.855 118.46C369.376 118.119 370.048 117.949 370.872 117.949C371.61 117.949 372.257 118.1 372.811 118.403C373.365 118.702 373.796 119.156 374.103 119.767C374.411 120.373 374.565 121.14 374.565 122.068V129H372.889V122.182C372.889 121.325 372.666 120.657 372.221 120.179C371.776 119.696 371.165 119.455 370.389 119.455C369.854 119.455 369.376 119.571 368.954 119.803C368.538 120.035 368.208 120.373 367.967 120.818C367.725 121.263 367.605 121.803 367.605 122.438ZM385.355 120.534L383.849 120.96C383.755 120.709 383.615 120.465 383.43 120.229C383.25 119.987 383.004 119.788 382.692 119.632C382.379 119.476 381.979 119.398 381.491 119.398C380.824 119.398 380.268 119.552 379.822 119.859C379.382 120.162 379.162 120.548 379.162 121.017C379.162 121.434 379.313 121.763 379.616 122.004C379.92 122.246 380.393 122.447 381.037 122.608L382.656 123.006C383.632 123.242 384.358 123.605 384.837 124.092C385.315 124.575 385.554 125.198 385.554 125.96C385.554 126.585 385.374 127.144 385.014 127.636C384.659 128.129 384.162 128.517 383.523 128.801C382.884 129.085 382.14 129.227 381.293 129.227C380.18 129.227 379.259 128.986 378.53 128.503C377.801 128.02 377.339 127.314 377.145 126.386L378.736 125.989C378.887 126.576 379.174 127.016 379.595 127.31C380.021 127.603 380.578 127.75 381.264 127.75C382.045 127.75 382.666 127.584 383.125 127.253C383.589 126.917 383.821 126.514 383.821 126.045C383.821 125.667 383.688 125.349 383.423 125.094C383.158 124.833 382.751 124.639 382.202 124.511L380.384 124.085C379.384 123.848 378.651 123.482 378.182 122.984C377.718 122.482 377.486 121.855 377.486 121.102C377.486 120.487 377.659 119.942 378.004 119.469C378.355 118.995 378.83 118.624 379.432 118.354C380.038 118.084 380.724 117.949 381.491 117.949C382.571 117.949 383.419 118.186 384.034 118.659C384.654 119.133 385.095 119.758 385.355 120.534Z" fill="white"/>
<path d="M87 6.60486H99.7641V57.8991H130.264V69.1434H87V6.61163V6.60486Z" fill="white"/>
<path d="M179.036 18.4727H149.39V31.7504H179.036V42.6084H149.39V58.6853H179.036V69.9296H136.917V7.39783H179.036V18.4727Z" fill="white"/>
<path d="M258.673 69.5907H245.995V7.05893H258.673V69.5907Z" fill="white"/>
<path d="M270.609 7.39783H283.989L308.233 50.9993V7.39783H320.123V69.9296H307.359L282.493 25.5623V69.9296H270.603V7.39783H270.609Z" fill="white"/>
<path d="M343.744 69.9364H331.066V7.4046H343.744V69.9364Z" fill="white"/>
<path d="M233.833 53.3308L206.517 53.3715C207.292 52.043 208.252 50.884 209.384 49.8809C210.523 48.8778 212.628 47.2579 215.713 45.0213L220.645 41.4426C224.796 38.44 227.782 35.7154 229.596 33.2686C232.363 29.5883 233.747 25.3725 233.747 20.6348C233.747 14.4467 231.787 9.4786 227.875 5.72371C226.882 4.77482 225.803 3.94793 224.644 3.24304C216.779 -1.54885 204.809 -1.10151 197.679 5.05949C197.428 5.27638 197.189 5.49326 196.951 5.72371C193.032 9.4786 191.079 14.4467 191.079 20.6348C191.079 25.3793 192.462 29.5883 195.23 33.2686C196.587 35.0918 198.586 37.0709 201.241 39.2059C202.38 38.257 203.611 37.3014 204.935 36.3321C207.087 34.7529 208.947 33.3499 210.503 32.1299C210.059 31.7639 209.556 31.3369 209.033 30.8489C205.756 27.8938 202.631 23.6374 202.631 18.981C202.631 12.5625 206.915 8.77371 212.251 8.64493C212.297 8.64493 212.337 8.64493 212.383 8.64493C212.429 8.64493 212.469 8.64493 212.515 8.64493C217.851 8.76693 222.135 12.5557 222.135 18.9743C222.135 27.7922 212.436 33.8379 206.319 38.3045C199.784 43.076 195.647 47.5968 193.892 51.8668C192.078 55.6692 191.112 59.8646 190.999 64.4599H219.01H233.853V53.324L233.833 53.3308Z" fill="#FFABAB"/>
<path d="M217.818 62.8333H206.988V75.7517H217.818V62.8333Z" fill="#FFABAB"/>
<path d="M212.403 25.5487C215.99 25.5487 218.898 22.5719 218.898 18.8997C218.898 15.2276 215.99 12.2507 212.403 12.2507C208.816 12.2507 205.908 15.2276 205.908 18.8997C205.908 22.5719 208.816 25.5487 212.403 25.5487Z" fill="#FFABAB"/>
</svg>
