<svg width="21" height="20" viewBox="0 0 21 20" fill="none" xmlns="http://www.w3.org/2000/svg">
<path d="M9.75602 1C8.06296 1 6.69043 2.40656 6.69043 4.09966C6.69043 5.79275 8.06293 7.16525 9.75602 7.16525C11.4491 7.16525 12.8216 5.79275 12.8216 4.09966C12.8216 2.40656 11.4491 1 9.75602 1Z" fill="#000"/>
<path d="M12.04 11.5422C10.7083 11.5422 10.2528 13.1314 10.2483 13.1474C10.2469 13.1522 10.2417 13.1544 10.2402 13.1592C10.2402 13.1591 10.2404 13.1591 10.2404 13.1591C10.1744 13.3723 9.98134 13.5201 9.75728 13.5211C9.75677 13.5211 9.75629 13.5211 9.75527 13.5211C9.52726 13.5211 9.32667 13.3689 9.26379 13.1493C9.24533 13.0835 8.79077 11.5422 7.47154 11.5422C6.46017 11.5422 5.69775 12.3884 5.69775 13.5111C5.69775 14.8473 6.90274 16.1884 8.89956 17.8738C9.07001 18.0175 9.24529 18.1654 9.42504 18.3181C9.61552 18.4799 9.89551 18.4804 10.0861 18.3187C10.2657 18.1662 10.4406 18.0186 10.6105 17.8748C12.1296 16.5933 13.8138 14.9458 13.8138 13.511C13.8138 12.3884 13.0514 11.5422 12.04 11.5422Z" fill="#000"/>
<path d="M12.3609 7.21625C11.6558 7.81918 10.7566 8.18702 9.75517 8.18702C8.75375 8.18702 7.8545 7.81915 7.14942 7.21625C4.2882 7.50234 2.09119 9.90712 2.09119 12.8195V13.5348C2.09119 15.1902 2.73496 16.7434 3.89992 17.9083C3.89992 17.9185 3.89992 17.9185 3.91014 17.9185C4.22692 18.2353 4.66632 18.4193 5.11594 18.4295C5.86306 18.4108 6.46742 17.8439 6.56695 17.1149C5.61451 16.1364 4.67528 14.8826 4.67528 13.511C4.67528 11.7656 6.00881 10.5202 7.4662 10.5202C7.46718 10.5202 7.46793 10.5204 7.46896 10.5204C7.46964 10.5204 7.47025 10.5202 7.47096 10.5202C8.43264 10.5202 9.23617 11.0492 9.75568 11.823C10.28 11.0418 11.0618 10.5202 12.0394 10.5202C12.0401 10.5202 12.0407 10.5204 12.0414 10.5204C12.0424 10.5204 12.0432 10.5202 12.0442 10.5202C13.5924 10.5202 14.8351 11.8482 14.8351 13.511C14.7869 13.6404 15.0424 14.9004 12.9421 17.1012C13.0359 17.8367 13.6427 18.4106 14.3945 18.4295C14.8441 18.4193 15.2835 18.2353 15.6003 17.9185C15.6105 17.9185 15.6105 17.9185 15.6105 17.9083C16.7754 16.7434 17.4192 15.1902 17.4192 13.5348V12.8195C17.4192 9.90712 15.2221 7.50234 12.3609 7.21625Z" fill="#000"/>
</svg>
