<svg width="21" height="20" viewBox="0 0 21 20" fill="none" xmlns="http://www.w3.org/2000/svg">
<path d="M8.51874 10.3435C9.04741 10.9347 9.57039 11.5117 10.082 12.0688C8.55285 13.7969 6.33017 16.2754 5.61391 16.8723C4.20413 18.0433 2.41349 16.4573 3.62999 14.8883C4.13592 14.2346 5.93793 12.5633 8.51874 10.3435Z" fill="#000"/>
<path d="M18.3083 6.16807L18.3054 6.17091C18.2928 6.18921 18.2785 6.20633 18.2628 6.22207C15.0425 9.43955 15.0879 9.50777 14.3973 9.70104C13.4508 9.96538 13.0585 9.48503 12.4844 9.69252C11.9302 9.18659 11.356 8.66645 10.7705 8.14346C11.0718 7.51816 10.5289 7.12877 10.7989 6.1368C10.9979 5.44328 11.0604 5.4916 14.2978 2.25707C14.36 2.18121 14.4374 2.11922 14.5251 2.07509C14.6127 2.03097 14.7086 2.00568 14.8066 2.00085C14.9046 1.99603 15.0025 2.01177 15.0941 2.04708C15.1856 2.08239 15.2688 2.13647 15.3381 2.20585C15.4075 2.27523 15.4616 2.35836 15.4969 2.44991C15.5322 2.54145 15.548 2.63937 15.5431 2.73737C15.5383 2.83537 15.513 2.93127 15.4689 3.0189C15.4248 3.10654 15.3628 3.18396 15.2869 3.24619L13.303 5.23295C13.2679 5.26481 13.2396 5.30347 13.2199 5.34658C13.2002 5.38968 13.1895 5.43634 13.1883 5.48373C13.1872 5.53111 13.1957 5.57824 13.2133 5.62225C13.2309 5.66625 13.2572 5.70623 13.2908 5.73974C13.3243 5.77326 13.3642 5.79962 13.4083 5.81723C13.4523 5.83484 13.4994 5.84333 13.5468 5.84219C13.5942 5.84104 13.6408 5.83029 13.6839 5.81058C13.727 5.79087 13.7657 5.76261 13.7975 5.72751L15.7843 3.74359C15.8466 3.66772 15.924 3.60571 16.0117 3.56154C16.0993 3.51738 16.1952 3.49204 16.2933 3.48715C16.3913 3.48226 16.4893 3.49793 16.5809 3.53315C16.6725 3.56838 16.7557 3.62237 16.8252 3.69168C16.8947 3.76098 16.9489 3.84405 16.9844 3.93556C17.0199 4.02707 17.0359 4.12499 17.0313 4.22303C17.0266 4.32107 17.0016 4.41706 16.9577 4.50483C16.9138 4.59261 16.852 4.67023 16.7763 4.73271L14.7895 6.71947C14.7544 6.75133 14.7262 6.78999 14.7064 6.8331C14.6867 6.8762 14.676 6.92286 14.6748 6.97025C14.6737 7.01764 14.6822 7.06476 14.6998 7.10877C14.7174 7.15277 14.7438 7.19275 14.7773 7.22626C14.8108 7.25978 14.8508 7.28614 14.8948 7.30375C14.9388 7.32136 14.9859 7.32985 15.0333 7.32871C15.0807 7.32757 15.1273 7.31681 15.1704 7.2971C15.2136 7.27739 15.2522 7.24913 15.2841 7.21403L17.2708 5.23011C17.3308 5.15637 17.4051 5.09562 17.4894 5.05154C17.5736 5.00746 17.6658 4.98099 17.7606 4.97373C17.8554 4.96646 17.9506 4.97857 18.0406 5.00931C18.1305 5.04004 18.2132 5.08876 18.2837 5.1525C18.3542 5.21624 18.411 5.29366 18.4506 5.38006C18.4902 5.46645 18.5119 5.56 18.5142 5.65501C18.5165 5.75003 18.4994 5.84451 18.464 5.93272C18.4286 6.02092 18.3756 6.101 18.3083 6.16807Z" fill="#000"/>
<path d="M17.1679 16.77C16.9016 17.0234 16.5459 17.1611 16.1785 17.1531C15.811 17.1452 15.4616 16.9921 15.2067 16.7273C11.9097 13.291 8.7376 9.73812 8.7376 9.73812C8.58539 9.56586 8.39444 9.43223 8.18047 9.34822C7.9665 9.26422 7.73563 9.23224 7.50689 9.25493C6.40692 9.3601 5.09946 8.85987 4.06771 7.8281C2.5016 6.25915 2.16053 4.05921 3.30881 2.91093C4.4571 1.76264 6.65988 2.10371 8.22599 3.66982C9.25774 4.70157 9.75799 6.00903 9.65282 7.109C9.63105 7.33767 9.66344 7.56826 9.74739 7.78208C9.83134 7.9959 9.96447 8.18693 10.136 8.33971C12.2613 10.2286 15.3309 13.0839 17.1252 14.8088C17.257 14.9346 17.3626 15.0852 17.4361 15.252C17.5096 15.4187 17.5495 15.5983 17.5534 15.7805C17.5574 15.9627 17.5254 16.1439 17.4592 16.3137C17.393 16.4834 17.294 16.6385 17.1679 16.77Z" fill="#000"/>
</svg>
