<svg width="21" height="20" viewBox="0 0 21 20" fill="none" xmlns="http://www.w3.org/2000/svg">
<path fill-rule="evenodd" clip-rule="evenodd" d="M16.8869 17H3.38717C2.14365 17 1.13678 15.9563 1.13678 14.6666C1.13678 13.3768 3.41139 12.3325 3.38717 12.3325L9.01203 8.44446V7.66511C9.01203 7.02191 9.51525 6.49953 10.1381 6.49953C10.7589 6.49953 11.262 5.97709 11.262 5.33392C11.262 4.68795 10.7589 4.16554 10.1381 4.16554C9.51525 4.16554 9.01203 4.68795 9.01203 5.33392H7.88706C7.88706 4.04416 8.8945 3 10.1381 3C11.3785 3 12.3859 4.04416 12.3859 5.33392C12.3859 6.21755 11.9036 6.97695 11.205 7.37346C11.2291 7.46968 11.262 7.56142 11.262 7.66515V8.44216L16.8869 12.3326C16.865 12.3326 19.1368 13.3769 19.1368 14.6666C19.1368 15.9564 18.1306 17 16.8869 17ZM15.1994 13.5009L10.1381 9.99914L5.07463 13.5009C5.07463 13.5009 4.51115 13.7608 4.51115 14.0833C4.51115 14.4045 4.76487 14.6666 5.07463 14.6666H15.1994C15.5093 14.6666 15.7619 14.4045 15.7619 14.0833C15.7619 13.7608 15.1994 13.5009 15.1994 13.5009Z" fill="#000"/>
</svg>
