<svg width="20" height="20" viewBox="0 0 20 20" fill="none" xmlns="http://www.w3.org/2000/svg">
<path d="M17.4083 6.11081C15.0283 2.20054 11.443 4.92096 11.443 4.92096C11.2104 5.0967 10.7817 5.24119 10.4904 5.24186L9.53001 5.24253C9.23868 5.24287 8.80992 5.09838 8.57773 4.92264C8.57773 4.92264 4.99206 2.20155 2.6117 6.11182C0.232005 10.0207 1.19101 14.2778 1.19101 14.2778C1.35902 15.3201 1.91278 16.0157 2.9578 15.9283C3.9998 15.8413 6.26155 13.1212 6.26155 13.1212C6.44837 12.8971 6.83984 12.7139 7.13049 12.7139L12.8879 12.7129C13.1789 12.7129 13.57 12.8961 13.7565 13.1202C13.7565 13.1202 16.0186 15.8403 17.0622 15.9273C18.1059 16.0147 18.661 15.3184 18.828 14.2768C18.828 14.2768 19.7884 10.0204 17.4083 6.11081ZM7.84622 9.29359H6.61168V10.4834C6.61168 10.4834 6.35025 10.683 5.94569 10.678C5.54179 10.6719 5.359 10.4602 5.359 10.4602V9.29392H4.19301C4.19301 9.29392 4.04751 9.14473 4.00853 8.75192C3.97023 8.35912 4.16949 8.04158 4.16949 8.04158H5.40436V6.80704C5.40436 6.80704 5.65839 6.67095 6.02364 6.68137C6.38923 6.69279 6.65704 6.83023 6.65704 6.83023L6.652 8.04124H7.81799C7.81799 8.04124 8.02162 8.30267 8.03842 8.61852C8.05522 8.93472 7.84622 9.29359 7.84622 9.29359ZM13.5088 10.6498C12.9682 10.6498 12.5323 10.2126 12.5323 9.67262C12.5323 9.13163 12.9682 8.69547 13.5088 8.69547C14.0471 8.69547 14.4863 9.13163 14.4863 9.67262C14.4863 10.2129 14.0471 10.6498 13.5088 10.6498ZM13.5088 7.96127C12.9682 7.96127 12.5323 7.52444 12.5323 6.98446C12.5323 6.44347 12.9682 6.00731 13.5088 6.00731C14.0471 6.00731 14.4863 6.44347 14.4863 6.98446C14.4863 7.52478 14.0471 7.96127 13.5088 7.96127ZM15.9423 9.40447C15.4016 9.40447 14.9658 8.96765 14.9658 8.42733C14.9658 7.88667 15.4016 7.45018 15.9423 7.45018C16.4806 7.45018 16.9198 7.88667 16.9198 8.42733C16.9198 8.96765 16.4806 9.40447 15.9423 9.40447Z" fill="#000"/>
</svg>
