<svg width="21" height="20" viewBox="0 0 21 20" fill="none" xmlns="http://www.w3.org/2000/svg">
<path d="M6.66182 4.51776V12.7996C6.17991 12.3697 5.54487 12.108 4.84976 12.108C3.34709 12.108 2.12457 13.3305 2.12457 14.8332C2.12457 16.3359 3.34709 17.5584 4.84976 17.5584C6.35057 17.5584 7.57181 16.339 7.57491 14.8389H7.57497V8.1831L15.6811 6.12827V10.6012C15.1991 10.1713 14.5641 9.90954 13.869 9.90954C12.3663 9.90954 11.1438 11.1321 11.1438 12.6347C11.1438 14.1374 12.3663 15.3599 13.869 15.3599C15.3717 15.3599 16.5942 14.1374 16.5942 12.6347V2L6.66182 4.51776Z" fill="#000"/>
</svg>
