<svg width="21" height="20" viewBox="0 0 21 20" fill="none" xmlns="http://www.w3.org/2000/svg">
<path d="M19.1956 3.47524C19.162 3.38773 19.0844 3.32615 18.9934 3.31473C18.9027 3.30335 18.8128 3.34391 18.7596 3.42051C18.4437 3.87534 18.0292 4.02695 17.549 4.20252C17.1618 4.34416 16.7614 4.4905 16.3287 4.80956C15.7167 5.26075 15.4368 5.87579 15.5764 6.45873L15.5615 6.47837C15.3059 6.09766 15.0279 5.74553 14.7344 5.4311C13.3616 3.96002 11.4433 3.07561 9.4713 3.00471C9.38442 3.00158 9.29613 3 9.20887 3C7.00688 3 4.89923 4.0109 3.42638 5.77343C1.96125 7.52684 1.31185 9.80937 1.64478 12.0358C1.67262 12.2219 1.70745 12.4099 1.74841 12.5947C2.28993 15.0425 3.67302 16.9045 5.54308 17.7033C6.00406 17.9002 6.46903 18 6.92492 18C8.05758 18 9.04691 17.3779 9.6393 16.2931C9.86448 15.8803 10.0098 15.4535 10.071 15.0243C10.1071 14.771 10.0824 14.5179 10.0585 14.2726C10.0339 14.0201 10.0106 13.7815 10.0478 13.5413C10.1331 12.9906 10.5077 12.6618 11.0498 12.6618C11.204 12.6618 11.3616 12.6879 11.519 12.7393C11.3347 13.0864 11.1674 13.4177 11.0212 13.7249C10.7113 14.3758 10.4975 14.9149 10.3857 15.327C10.3167 15.5811 10.1335 16.2565 10.5803 16.575C10.7221 16.6761 10.902 16.7118 11.0892 16.676C11.2579 16.6438 11.7713 16.5459 13.2301 14.8404C13.6216 14.3828 14.0435 13.8531 14.4844 13.266C15.6165 12.8744 16.4974 11.9 16.7305 10.7803C16.7888 10.5005 16.8131 10.2009 16.8028 9.88978C17.2266 9.2171 17.5984 8.58944 17.9725 7.9147C17.9796 7.90169 17.9867 7.88783 17.9937 7.87362C18.5367 7.7209 19.0043 7.28696 19.2788 6.68013C19.6796 5.79448 19.6501 4.65624 19.1956 3.47524ZM13.0758 7.669C12.8794 7.98929 12.5418 8.18052 12.1727 8.18052C11.9723 8.18052 11.7762 8.12228 11.6058 8.01205C11.3649 7.85621 11.1973 7.61337 11.1343 7.32825C11.0712 7.04313 11.1199 6.7498 11.2717 6.50234C11.4681 6.18204 11.8057 5.99081 12.1748 5.99081C12.3753 5.99081 12.5713 6.04905 12.7417 6.15932C12.9826 6.31508 13.1501 6.55792 13.2132 6.84308C13.2763 7.12824 13.2275 7.42153 13.0758 7.669ZM14.4594 9.6525C14.9984 8.83703 15.5683 8.02643 16.1096 7.3054C16.1974 7.38679 16.2955 7.46629 16.4018 7.54203C16.578 7.66754 16.7622 7.76459 16.9503 7.83105C16.4933 8.63372 16.0019 9.42896 15.4068 10.329C14.4292 11.8083 13.4126 13.1825 12.5444 14.1983C12.0595 14.7658 11.6351 15.2038 11.3081 15.4752C11.4343 15.0605 11.6755 14.4915 12.0113 13.8172C12.6116 12.6115 13.481 11.1324 14.4594 9.6525ZM4.99719 9.64548C4.79672 9.64548 4.60067 9.58724 4.43021 9.47697C4.18929 9.32117 4.02182 9.07841 3.95874 8.79321C3.89565 8.50805 3.94448 8.21471 4.09628 7.96725C4.29258 7.647 4.63017 7.45577 4.99927 7.45577C5.19978 7.45577 5.39583 7.51401 5.56625 7.62428C6.0636 7.94598 6.21344 8.62324 5.90038 9.13391C5.70388 9.45425 5.36624 9.64548 4.99719 9.64548ZM3.87973 12.0561C4.07611 11.7358 4.41367 11.5446 4.7828 11.5446C4.98323 11.5446 5.17924 11.6028 5.34974 11.7131C5.59067 11.8689 5.75813 12.1117 5.82122 12.3968C5.88434 12.6819 5.83551 12.9752 5.68367 13.2227C5.48737 13.5429 5.14978 13.7342 4.78068 13.7342C4.58021 13.7342 4.38412 13.676 4.21362 13.5657C3.97269 13.4099 3.80527 13.1671 3.74223 12.882C3.67923 12.5969 3.7281 12.3035 3.87973 12.0561ZM7.29368 5.55425C7.49006 5.23396 7.82766 5.04273 8.19675 5.04273C8.39714 5.04273 8.59319 5.10096 8.76361 5.21119C9.261 5.53281 9.41084 6.21011 9.09774 6.72087C8.90128 7.04121 8.56368 7.23244 8.19459 7.23244C7.99416 7.23244 7.79812 7.1742 7.62769 7.06393C7.38681 6.90817 7.21939 6.66537 7.1563 6.38017C7.09313 6.09505 7.14197 5.80176 7.29368 5.55425Z" fill="#000"/>
</svg>
