<svg width="21" height="20" viewBox="0 0 21 20" fill="none" xmlns="http://www.w3.org/2000/svg">
<path d="M14.1282 10.5582C13.3044 9.27309 11.9014 8.50574 10.3751 8.50574C8.84876 8.50574 7.44576 9.27309 6.62212 10.5582L4.63711 13.6549C4.30777 14.1686 4.15581 14.7622 4.19757 15.371C4.23933 15.98 4.47104 16.547 4.86757 17.0113C5.26438 17.4751 5.7887 17.7922 6.38384 17.9282C6.97898 18.0643 7.58907 18.0062 8.14803 17.7605L8.18546 17.7439C9.59195 17.138 11.1992 17.1436 12.602 17.7605C12.9639 17.9196 13.3473 18 13.7342 18C13.9445 18 14.1561 17.9761 14.3658 17.9284C14.9609 17.7925 15.4852 17.4754 15.8822 17.0114C16.2789 16.5476 16.5107 15.9804 16.5526 15.3713C16.5945 14.7622 16.4426 14.1687 16.1132 13.6547L14.1282 10.5582Z" fill="#000"/>
<path d="M5.1703 10.554C5.76083 10.3272 6.20946 9.85136 6.43349 9.21404C6.64677 8.60759 6.62931 7.92292 6.38419 7.28602C6.13893 6.64954 5.69281 6.12996 5.12798 5.82282C4.53466 5.50032 3.88281 5.44781 3.29326 5.67505C2.10717 6.13108 1.56287 7.59679 2.08008 8.94308C2.49322 10.0146 3.45682 10.6911 4.43102 10.6911C4.67978 10.6911 4.92923 10.6469 5.1703 10.554Z" fill="#000"/>
<path d="M9.02329 8.12808C10.506 8.12808 11.7124 6.75371 11.7124 5.06439C11.7124 3.37464 10.506 2 9.02329 2C7.54067 2 6.33447 3.37464 6.33447 5.06439C6.33447 6.75371 7.54067 8.12808 9.02329 8.12808Z" fill="#000"/>
<path d="M13.6647 8.8806H13.6649C13.8929 8.9563 14.1256 8.99248 14.3573 8.99248C15.4387 8.99248 16.4925 8.20543 16.8946 6.99588C17.1262 6.29962 17.111 5.56341 16.8517 4.92302C16.5805 4.25259 16.0778 3.76598 15.4362 3.5527C14.7944 3.33942 14.1004 3.42839 13.4818 3.80299C12.8908 4.16083 12.438 4.74144 12.2067 5.4377C11.7185 6.90649 12.3726 8.45097 13.6647 8.8806Z" fill="#000"/>
<path d="M19.3292 8.52318L19.3288 8.52276C18.3063 7.76742 16.777 8.09481 15.9196 9.25296C15.063 10.4117 15.1969 11.9694 16.2179 12.7253C16.5903 13.0012 17.0303 13.133 17.4806 13.133C18.2654 13.133 19.0819 12.7325 19.6277 11.9958C20.4842 10.8371 20.3504 9.27936 19.3292 8.52318Z" fill="#000"/>
</svg>
