<svg width="21" height="20" viewBox="0 0 21 20" fill="none" xmlns="http://www.w3.org/2000/svg">
<path d="M15.6318 17.0405L10.9404 13.6319L18.8012 7.92064C18.9585 8.58591 19.0421 9.2793 19.0421 9.99192C19.0421 12.8441 17.7082 15.3904 15.6318 17.0405Z" fill="#000"/>
<path d="M14.7189 17.6799C13.3555 18.5122 11.7546 18.9922 10.0436 18.9922C8.20489 18.9922 6.49348 18.4375 5.06708 17.4872L6.85992 11.9699L14.7189 17.6799Z" fill="#000"/>
<path d="M4.17648 16.812C2.25884 15.1602 1.0426 12.7155 1.0426 9.99195C1.0426 9.15505 1.15785 8.34466 1.37255 7.57534H7.17789L4.17648 16.812Z" fill="#000"/>
<path d="M1.7395 6.52014C3.05439 3.38672 6.0931 1.14919 9.66253 1.00002L11.4561 6.52014H1.7395Z" fill="#000"/>
<path d="M10.7791 1.02195C14.3175 1.30957 17.2834 3.65267 18.4782 6.85247L13.7821 10.2644L10.7791 1.02195Z" fill="#000"/>
</svg>
