<svg width="21" height="20" viewBox="0 0 21 20" fill="none" xmlns="http://www.w3.org/2000/svg">
<path d="M18.591 10.4549L15.6267 14.1987C15.3343 14.5686 14.9377 14.7761 14.524 14.7761H12.0409V18H6.05651V16.4563C6.05651 15.945 5.7284 15.53 5.32351 15.53C4.91862 15.53 4.59001 15.945 4.59001 16.4563V18H2.6839V16.4309C2.6839 13.341 4.66629 10.8353 7.11275 10.8353H13.878L16.3851 7.66816C16.9944 6.89815 17.9816 6.89877 18.5909 7.66816C19.1997 8.43755 19.1997 9.68487 18.591 10.4549Z" fill="#000"/>
<path d="M10.1835 3H10.176C8.29707 3.00409 6.77478 4.5291 6.77478 6.40943C6.77478 8.28909 8.29707 9.81409 10.176 9.81818H10.1835C12.0666 9.81818 13.593 8.29181 13.593 6.40943C13.593 4.52637 12.0666 3 10.1835 3Z" fill="#000"/>
</svg>
