<svg width="21" height="20" viewBox="0 0 21 20" fill="none" xmlns="http://www.w3.org/2000/svg">
<path d="M11.253 11.2294L12.8504 12.1519C11.8967 14.2642 11.7965 16.6634 12.5705 18.8479C12.0275 18.9495 11.4761 19.0004 10.9236 19C9.64838 19.0021 8.3874 18.732 7.2248 18.208L11.253 11.2294ZM14.4181 13.0582L18.2285 15.2578C17.236 16.6355 15.8751 17.7055 14.302 18.3448C13.7029 16.727 13.7055 14.9478 14.3092 13.3318L14.4181 13.0582ZM8.09776 9.40779L9.69518 10.3294L5.66698 17.3044C4.17693 16.2311 3.0498 14.7288 2.43615 12.9979C4.61072 12.5963 6.56067 11.4064 7.91237 9.65619L8.09776 9.40779ZM19.8386 8.75439C19.8953 9.16209 19.9241 9.57789 19.9241 9.99999C19.926 11.2753 19.6561 12.5364 19.1321 13.699L15.3199 11.4985C16.3932 10.0818 17.9533 9.11313 19.6991 8.77959L19.8386 8.75439ZM2.71693 6.3019L6.52824 8.50239C5.42524 9.95805 3.80971 10.9394 2.00957 11.2474C1.95258 10.834 1.92402 10.4172 1.92407 9.99999C1.92407 8.68149 2.20756 7.4296 2.71603 6.301L2.71693 6.3019ZM16.1812 2.69471C17.6712 3.76797 18.7983 5.27037 19.412 7.0012C17.2371 7.4036 15.2869 8.5941 13.9349 10.3447L13.7504 10.5931L12.153 9.67059L16.1812 2.69561V2.69471ZM10.9236 1.00001C12.2421 1.00001 13.4939 1.28351 14.6224 1.79201L10.5942 8.77059L8.99681 7.849C9.95095 5.73618 10.0512 3.33626 9.2767 1.15121C9.81982 1.04997 10.3711 0.99934 10.9236 1.00001ZM7.54609 1.65701C8.1443 3.27502 8.1411 5.05414 7.53709 6.67L7.42909 6.9427L3.61869 4.7422C4.57285 3.41828 5.86786 2.37762 7.3661 1.73081L7.54609 1.65701Z" fill="#000"/>
</svg>
