<svg width="17" height="12" viewBox="0 0 17 12" fill="none" xmlns="http://www.w3.org/2000/svg">
<path d="M3.30783 0C3.30741 0 3.30694 0 3.30652 0C3.15881 0 3.01988 0.0575803 2.91497 0.162224C2.80891 0.268025 2.75049 0.408899 2.75049 0.558871V8.93905C2.75049 9.24635 3.00148 9.49697 3.31004 9.49776C4.61089 9.50086 6.79031 9.77199 8.29382 11.3454V2.57529C8.29382 2.47112 8.26721 2.37326 8.21699 2.29228C6.98299 0.304992 4.61162 0.00304992 3.30783 0Z" fill="white"/>
<path d="M14.7042 8.9391V0.558871C14.7042 0.408899 14.6458 0.268025 14.5397 0.162224C14.4348 0.0575803 14.2958 0 14.1482 0C14.1478 0 14.1473 0 14.1469 0C12.8431 0.0031025 10.4718 0.305044 9.23772 2.29233C9.1875 2.37331 9.16095 2.47117 9.16095 2.57534V11.3454C10.6645 9.77199 12.8439 9.50086 14.1447 9.49776C14.4532 9.49697 14.7042 9.24635 14.7042 8.9391Z" fill="white"/>
<path d="M15.9768 1.93259H15.5715V8.93904C15.5715 9.72365 14.9323 10.3635 14.1464 10.3654C13.0431 10.368 11.2237 10.5838 9.93524 11.8033C12.1637 11.2577 14.5129 11.6123 15.8517 11.9174C16.0188 11.9555 16.1916 11.9162 16.3255 11.8094C16.459 11.7029 16.5355 11.5438 16.5355 11.3729V2.49135C16.5356 2.18326 16.2849 1.93259 15.9768 1.93259Z" fill="white"/>
<path d="M1.88189 8.93904V1.93259H1.47667C1.16863 1.93259 0.917908 2.18326 0.917908 2.49135V11.3728C0.917908 11.5437 0.994471 11.7028 1.12793 11.8093C1.26176 11.916 1.43434 11.9555 1.60177 11.9173C2.94058 11.6121 5.28981 11.2575 7.51814 11.8031C6.22971 10.5837 4.41038 10.368 3.30699 10.3653C2.52122 10.3635 1.88189 9.72365 1.88189 8.93904Z" fill="white"/>
</svg>
